:SAMPLES-PER-SECOND 30
:FRAME-RANGE 1-3358
:FULLY-SPECIFIED
:DEGREES
1680
root  -32.7902 38.9623 -2.45633 8.31012 83.3546 -4.98193
RightUpLeg  -5.73819 -10.1745 -5.77102
RightLeg  12.4921 -23.7663 -2.14993
RightFoot  -11.9553 -0.00205408 14.7712
RightToes  -1.11029e-010 1.2921e-014 -6.02303e-014
Spine  0.0621024 0.0333406 3.22759
Spine1  7.40781 1.66108 -7.16872
HEad  19.2703 -8.95675 1.25406
LeftShoulder1  0.595835 1.29195 -23.5806
LeftArm  -1.30795 12.0053 -40.3166
LeftForeArm  35.1834 5.57546 -12.7456
LeftHand  -0.0157177 5.40601 1.46981
RightShoulder  1.54085 3.58656 15.6533
RightArm  3.67808 19.4105 34.3201
RightForeArm  56.3835 28.6713 3.29113
RightHand  1.1691 -13.2534 -17.512
LeftUpLeg  -30.1428 6.19929 13.0514
LeftLeg  10.7599 11.0978 3.88204
LeftFoot  -8.4811 0.268796 -8.72237
LeftToes  -1.90334e-010 -8.83595e-011 4.99953e-011
1681
root  -32.0303 38.7799 -3.16183 3.26233 83.5317 -10.8165
RightUpLeg  -5.03499 -10.4668 -6.37683
RightLeg  11.7443 -23.4762 -1.98304
RightFoot  -11.5969 -0.0423427 16.4438
RightToes  -1.11029e-010 1.2921e-014 -6.02303e-014
Spine  -0.0942535 0.222244 3.17101
Spine1  7.78007 1.99731 -7.51663
HEad  18.9349 -10.0868 1.91223
LeftShoulder1  0.560504 1.40548 -23.4844
LeftArm  -1.27272 12.5995 -40.855
LeftForeArm  35.6132 5.21602 -12.7751
LeftHand  -0.0141307 5.20027 1.39651
RightShoulder  1.60877 3.73555 16.1971
RightArm  4.83562 19.7098 35.9002
RightForeArm  54.9442 22.4546 3.01428
RightHand  1.50052 -14.0013 -20.2661
LeftUpLeg  -31.3515 6.86088 12.9379
LeftLeg  10.576 12.0162 4.13451
LeftFoot  -7.01538 0.453661 -10.8761
LeftToes  -1.90334e-010 -8.83595e-011 4.99953e-011
1682
root  -31.1505 38.4787 -3.97881 -0.658325 83.2267 -15.2435
RightUpLeg  -4.36797 -11.5593 -7.40041
RightLeg  11.9239 -21.8783 -2.17024
RightFoot  -11.7397 -0.0154823 18.499
RightToes  -1.11029e-010 1.2921e-014 -6.02303e-014
Spine  -0.321207 0.406674 2.84673
Spine1  8.17327 2.23657 -7.51915
HEad  18.5446 -11.0067 2.44031
LeftShoulder1  0.582707 1.32659 -23.4273
LeftArm  -1.55048 13.3065 -41.4045
LeftForeArm  35.9826 5.27155 -12.7005
LeftHand  -0.0157546 5.14731 1.32711
RightShoulder  1.70709 3.96437 16.8965
RightArm  -4.42616 19.9652 36.3845
RightForeArm  63.2255 16.6281 6.33151
RightHand  1.84872 -14.831 -22.5657
LeftUpLeg  -32.3482 6.00935 13.5025
LeftLeg  13.2091 9.9261 3.71963
LeftFoot  -3.54157 1.15434 -16.5262
LeftToes  -1.90334e-010 -8.83595e-011 4.99953e-011
1683
root  -30.2712 38.1819 -4.76974 -2.52155 82.64 -17.3878
RightUpLeg  -4.75375 -12.8785 -8.12113
RightLeg  14.3757 -19.9575 -4.03727
RightFoot  -11.7541 -0.00336631 21.1977
RightToes  -1.11029e-010 1.2921e-014 -6.02303e-014
Spine  -0.168981 0.725876 2.13314
Spine1  8.3008 2.50137 -7.23902
HEad  17.9902 -12.2499 3.68711
LeftShoulder1  0.632163 1.15083 -23.3146
LeftArm  -1.59082 13.1063 -41.6763
LeftForeArm  35.9301 5.71845 -12.7213
LeftHand  -0.0206458 5.25019 1.27495
RightShoulder  1.81378 4.08317 18.0623
RightArm  -12.496 19.4541 36.929
RightForeArm  68.8815 12.9805 7.41563
RightHand  2.13147 -15.246 -24.743
LeftUpLeg  -34.1174 8.6636 12.2802
LeftLeg  17.0554 6.37069 2.53254
LeftFoot  1.62283 1.91507 -16.84
LeftToes  -1.90334e-010 -8.83595e-011 4.99953e-011
1684
root  -29.5034 38.0831 -5.43393 -3.77032 82.4964 -18.7684
RightUpLeg  -6.36711 -15.2688 -8.54916
RightLeg  18.7089 -17.3988 -6.45396
RightFoot  -11.1607 -0.107295 19.4255
RightToes  -1.11029e-010 1.2921e-014 -6.02303e-014
Spine  0.77989 0.968645 1.57552
Spine1  7.95019 2.82271 -7.47285
HEad  17.5123 -14.0259 4.85237
LeftShoulder1  0.720354 0.78718 -22.5384
LeftArm  -3.49626 12.6366 -42.617
LeftForeArm  36.613 5.95114 -11.9409
LeftHand  -0.0272907 5.47052 1.42012
RightShoulder  1.90075 4.24305 18.7527
RightArm  -16.613 17.8078 38.1355
RightForeArm  70.6027 11.3069 7.28039
RightHand  2.3079 -16.0148 -24.8174
LeftUpLeg  -36.0769 12.5672 9.49081
LeftLeg  21.3679 2.28097 1.31584
LeftFoot  1.74706 1.18068 -10.3644
LeftToes  -1.90334e-010 -8.83595e-011 4.99953e-011
1685
root  -28.7815 38.1989 -6.03668 -3.99799 80.9962 -18.6472
RightUpLeg  -9.05596 -13.5146 -8.85905
RightLeg  25.2137 -16.3384 -8.42747
RightFoot  -11.1973 -0.0914526 11.9897
RightToes  -1.11029e-010 1.2921e-014 -6.02303e-014
Spine  1.60062 1.53326 1.50843
Spine1  8.12461 3.60091 -7.95223
HEad  17.7363 -14.9286 4.67054
LeftShoulder1  0.642559 1.04627 -22.3652
LeftArm  -4.49122 12.3742 -43.3641
LeftForeArm  35.4326 4.99154 -11.547
LeftHand  -0.0251299 5.46178 2.72565
RightShoulder  2.0269 4.4542 19.775
RightArm  -18.8633 17.2947 39.0461
RightForeArm  70.231 9.50336 7.24584
RightHand  2.43702 -15.8908 -26.4042
LeftUpLeg  -35.4331 11.8229 9.49124
LeftLeg  23.892 4.15423 2.34815
LeftFoot  0.256459 0.937023 -9.22896
LeftToes  -1.90334e-010 -8.83595e-011 4.99953e-011
1686
root  -28.1322 38.4149 -6.46375 -4.57666 79.5234 -18.6681
RightUpLeg  -11.0887 -11.742 -8.819
RightLeg  29.6109 -12.2085 -7.62989
RightFoot  -13.4434 0.116506 11.3066
RightToes  -1.11029e-010 1.2921e-014 -6.02303e-014
Spine  2.08837 1.89988 0.778626
Spine1  8.77765 4.02067 -7.84813
HEad  18.8028 -15.0089 3.39705
LeftShoulder1  0.577923 1.2809 -22.475
LeftArm  -4.05125 12.3703 -43.8203
LeftForeArm  34.0175 3.90206 -11.7331
LeftHand  -0.0314108 5.17696 4.0256
RightShoulder  2.10834 4.55692 20.5255
RightArm  -20.6962 17.625 40.9227
RightForeArm  69.8683 6.8604 6.64655
RightHand  2.50148 -15.6979 -27.5334
LeftUpLeg  -33.4718 9.81318 10.1679
LeftLeg  24.4672 7.20525 3.90757
LeftFoot  -0.807985 0.889021 -9.57688
LeftToes  -1.90334e-010 -8.83595e-011 4.99953e-011
1687
root  -27.4656 38.7903 -6.77384 -7.66034 79.2663 -22.0442
RightUpLeg  -12.6996 -11.9644 -7.66494
RightLeg  30.1348 -7.59638 -4.97232
RightFoot  -13.8691 0.144393 10.7942
RightToes  -1.11029e-010 1.2921e-014 -6.02303e-014
Spine  1.63409 1.77964 0.387427
Spine1  9.10156 3.7118 -7.06271
HEad  19.8583 -15.4136 2.73515
LeftShoulder1  0.58547 1.21836 -21.9509
LeftArm  -3.81204 13.0517 -44.5383
LeftForeArm  33.7348 2.58187 -11.8355
LeftHand  -0.0360759 5.01389 3.93755
RightShoulder  2.1368 4.45757 21.2856
RightArm  -21.8311 17.1488 43.0832
RightForeArm  68.6933 4.96185 5.84005
RightHand  2.5369 -15.3429 -28.8334
LeftUpLeg  -31.5766 8.2224 10.6747
LeftLeg  22.5542 9.07418 4.45165
LeftFoot  -0.692773 0.874088 -9.32111
LeftToes  -1.90334e-010 -8.83595e-011 4.99953e-011
1688
root  -26.829 39.1599 -7.01656 -11.177 79.7626 -26.1891
RightUpLeg  -13.6399 -11.6318 -6.30884
RightLeg  27.2002 -4.44505 -2.70191
RightFoot  -13.1283 0.119846 13.3683
RightToes  -1.11029e-010 1.2921e-014 -6.02303e-014
Spine  1.42302 1.38603 0.0478829
Spine1  8.55035 3.05748 -6.19658
HEad  20.2902 -16.2664 2.73104
LeftShoulder1  0.624932 1.04782 -21.5564
LeftArm  -3.79364 13.4469 -44.7973
LeftForeArm  34.7171 2.0263 -11.8182
LeftHand  -0.0397852 4.77977 3.17131
RightShoulder  2.13949 4.22297 22.2363
RightArm  -22.9931 15.8587 44.6709
RightForeArm  67.036 3.42977 5.11362
RightHand  2.53552 -15.0536 -29.6296
LeftUpLeg  -29.8847 7.10239 10.8069
LeftLeg  19.6224 9.93952 4.26954
LeftFoot  -0.204913 0.875048 -8.95161
LeftToes  -1.90334e-010 -8.83595e-011 4.99953e-011
1689
root  -26.2138 39.4535 -7.22808 -16.0562 80.7106 -31.5816
RightUpLeg  -13.7209 -10.7805 -5.0407
RightLeg  22.0016 -3.14954 -1.61274
RightFoot  -12.0489 0.0195901 16.3995
RightToes  -1.11029e-010 1.2921e-014 -6.02303e-014
Spine  1.44331 0.825671 -0.0750176
Spine1  7.82765 2.25177 -5.3619
HEad  19.9875 -17.2258 3.25927
LeftShoulder1  0.703763 0.747466 -21.3777
LeftArm  -3.6765 13.5752 -44.6919
LeftForeArm  35.3979 1.88221 -11.8412
LeftHand  -0.0390955 4.6979 2.70542
RightShoulder  2.11452 3.90242 23.2059
RightArm  -24.0093 14.3215 45.7754
RightForeArm  65.8686 1.41905 4.38773
RightHand  2.52223 -15.0506 -29.494
LeftUpLeg  -28.4707 6.13761 10.6357
LeftLeg  16.9808 9.99721 4.08846
LeftFoot  0.257674 0.865339 -8.52564
LeftToes  -1.90334e-010 -8.83595e-011 4.99953e-011
1690
root  -25.6187 39.6161 -7.40425 -18.9061 81.7976 -34.8484
RightUpLeg  -13.6081 -11.4305 -4.4426
RightLeg  16.2864 -1.96362 -0.80976
RightFoot  -11.7521 -0.010166 19.4305
RightToes  -1.11029e-010 1.2921e-014 -6.02303e-014
Spine  1.03284 0.289579 -0.534759
Spine1  7.66752 1.52637 -4.57214
HEad  19.2221 -18.1262 3.95239
LeftShoulder1  0.793114 0.408718 -21.2374
LeftArm  -3.82585 13.4654 -44.7118
LeftForeArm  35.9938 2.08866 -11.7896
LeftHand  -0.0363521 4.87308 3.01542
RightShoulder  2.04929 3.43012 24.3475
RightArm  -25.7619 12.5447 46.4025
RightForeArm  65.5541 -0.347452 3.32858
RightHand  2.65627 -15.9861 -28.3674
LeftUpLeg  -27.4818 5.52444 9.87783
LeftLeg  15.2826 9.54038 3.99547
LeftFoot  0.184294 0.826073 -8.18829
LeftToes  -1.90334e-010 -8.83595e-011 4.99953e-011
1691
root  -25.0717 39.6769 -7.53549 -18.5813 82.4819 -34.4718
RightUpLeg  -13.7602 -8.38825 -4.92768
RightLeg  12.3026 -3.27351 -0.446558
RightFoot  -12.5308 0.115634 19.2293
RightToes  -1.11029e-010 1.2921e-014 -6.02303e-014
Spine  0.958767 0.0308339 -0.826447
Spine1  7.65911 1.22039 -4.27395
HEad  18.5313 -18.9345 4.2591
LeftShoulder1  0.799543 0.385101 -21.2362
LeftArm  -4.00315 12.9459 -44.6903
LeftForeArm  35.9952 2.3498 -11.7336
LeftHand  -0.032093 5.1408 3.67035
RightShoulder  1.98923 3.11229 24.9414
RightArm  -28.9322 10.3993 47.4828
RightForeArm  66.3029 -2.85535 1.31971
RightHand  2.53339 -14.783 -30.4057
LeftUpLeg  -26.4149 5.14722 9.06752
LeftLeg  14.6964 9.26699 3.973
LeftFoot  -0.535693 0.752786 -7.91828
LeftToes  -1.90334e-010 -8.83595e-011 4.99953e-011
1692
root  -24.5947 39.6102 -7.62204 -17.18 82.9043 -32.5944
RightUpLeg  -14.1559 -5.53331 -5.3528
RightLeg  10.3652 -1.52657 -0.188412
RightFoot  -13.6077 0.341416 21.7272
RightToes  -1.11029e-010 1.2921e-014 -6.02303e-014
Spine  1.33644 -0.176069 -0.808113
Spine1  7.57736 1.07169 -4.44818
HEad  18.1977 -19.2897 4.02658
LeftShoulder1  0.813236 0.373147 -21.6148
LeftArm  -4.15014 12.5677 -44.2459
LeftForeArm  35.0476 2.18836 -11.6486
LeftHand  -0.0332047 5.10801 3.83917
RightShoulder  1.93414 2.91721 25.0269
RightArm  -32.6505 8.46992 49.2005
RightForeArm  67.8904 -4.61094 -1.05915
RightHand  2.51959 -14.3175 -31.7245
LeftUpLeg  -25.8196 4.60221 8.59987
LeftLeg  16.0514 9.31718 4.09538
LeftFoot  -2.15654 0.647912 -7.89774
LeftToes  -1.90334e-010 -8.83595e-011 4.99953e-011
1693
root  -24.151 39.3748 -7.68343 -15.6996 83.3714 -30.3357
RightUpLeg  -14.8473 -4.88461 -5.62856
RightLeg  11.2485 4.19112 0.851511
RightFoot  -13.1644 0.319983 25.3953
RightToes  -1.11029e-010 1.2921e-014 -6.02303e-014
Spine  1.66008 -0.435446 -0.627584
Spine1  7.7301 0.839022 -4.62873
HEad  18.485 -19.2283 3.21308
LeftShoulder1  0.836208 0.319991 -21.9082
LeftArm  -4.07982 12.2412 -43.9296
LeftForeArm  34.026 2.20895 -11.6595
LeftHand  -0.0410746 4.86597 4.13767
RightShoulder  1.89386 2.83791 24.7565
RightArm  -36.1936 6.98529 50.8004
RightForeArm  69.2805 -4.18495 -3.21135
RightHand  2.45217 -13.6276 -33.3434
LeftUpLeg  -26.2144 4.28037 8.36665
LeftLeg  19.9564 9.02028 4.05828
LeftFoot  -4.74903 0.492486 -8.04879
LeftToes  -1.90334e-010 -8.83595e-011 4.99953e-011
1694
root  -23.7126 39.106 -7.76101 -17.5537 84.0004 -31.2091
RightUpLeg  -15.8218 -4.63642 -5.4211
RightLeg  15.7637 4.25583 1.1477
RightFoot  -12.816 0.11254 15.4557
RightToes  -1.11029e-010 1.2921e-014 -6.02303e-014
Spine  2.04024 -0.523476 0.390623
Spine1  7.80452 0.639919 -4.49
HEad  19.6579 -19.6497 2.65282
LeftShoulder1  0.832353 0.351132 -22.0831
LeftArm  -3.38467 11.6567 -43.5982
LeftForeArm  33.7765 2.25878 -11.9005
LeftHand  -0.0441126 4.75455 4.05053
RightShoulder  1.80913 2.6792 24.12
RightArm  -37.8086 4.70842 51.7888
RightForeArm  69.2948 -4.02153 -4.14299
RightHand  2.5784 -13.7802 -34.3264
LeftUpLeg  -27.3962 6.16222 7.70945
LeftLeg  25.3336 6.11245 3.48905
LeftFoot  -6.93438 0.368903 -8.49826
LeftToes  -1.90334e-010 -8.83595e-011 4.99953e-011
